<?xml version="1.0" encoding="UTF-8" standalone="no"?>
<svg
   xmlns:dc="http://purl.org/dc/elements/1.1/"
   xmlns:cc="http://creativecommons.org/ns#"
   xmlns:rdf="http://www.w3.org/1999/02/22-rdf-syntax-ns#"
   xmlns:svg="http://www.w3.org/2000/svg"
   xmlns="http://www.w3.org/2000/svg"
   viewBox="0 0 612.70374 556.08918"
   height="556.08917"
   width="612.70374"
   xml:space="preserve"
   id="svg2"
   version="1.1"><metadata
     id="metadata8"><rdf:RDF><cc:Work
         rdf:about=""><dc:format>image/svg+xml</dc:format><dc:type
           rdf:resource="http://purl.org/dc/dcmitype/StillImage" /></cc:Work></rdf:RDF></metadata><defs
     id="defs6"><clipPath
       id="clipPath18"
       clipPathUnits="userSpaceOnUse"><path
         id="path16"
         d="M 0,417.067 H 459.528 V 0 H 0 Z" /></clipPath></defs><g
     transform="matrix(1.3333333,0,0,-1.3333333,0,556.08919)"
     id="g10"><g
       id="g12"><g
         clip-path="url(#clipPath18)"
         id="g14"><g
           transform="translate(17,383.0669)"
           id="g20"><path
             id="path22"
             style="fill:#1fba0a;fill-opacity:1;fill-rule:nonzero;stroke:none"
             d="m 0,0 h 48.733 l 69.417,-251.033 c 1.983,-7.367 8.783,-12.467 16.433,-12.467 h 213.35 c 6.8,0 12.75,3.967 15.583,10.2 l 77.633,178.5 c 2.267,5.383 1.7,11.333 -1.417,16.15 -3.117,4.817 -8.5,7.65 -14.167,7.65 H 189.833 c -9.35,0 -17,-7.65 -17,-17 0,-9.35 7.65,-17 17,-17 H 399.5 L 336.6,-229.5 H 147.333 L 77.917,21.533 C 75.934,28.9 69.134,34 61.484,34 H 0 C -9.35,34 -17,26.35 -17,17 -17,7.65 -9.35,0 0,0" /></g><g
           transform="translate(135.4331)"
           id="g24"><path
             id="path26"
             style="fill:#1fba0a;fill-opacity:1;fill-rule:nonzero;stroke:none"
             d="M 0,0 C 21.25,0 38.533,17.283 38.533,38.533 38.533,59.783 21.25,77.066 0,77.066 -21.25,77.066 -38.533,59.784 -38.533,38.534 -38.533,17.284 -21.25,0 0,0" /></g><g
           transform="translate(376.2666)"
           id="g28"><path
             id="path30"
             style="fill:#1fba0a;fill-opacity:1;fill-rule:nonzero;stroke:none"
             d="m 0,0 h 2.833 c 10.2,0.85 19.551,5.383 26.351,13.317 6.799,7.65 9.917,17.567 9.349,28.05 C 37.116,62.334 18.7,78.484 -2.55,77.067 -23.8,75.65 -39.667,56.95 -38.25,35.984 -36.834,15.867 -20.116,0 0,0" /></g></g></g></g></svg>