<?xml version="1.0" encoding="UTF-8" standalone="no"?>
<svg
   xmlns:dc="http://purl.org/dc/elements/1.1/"
   xmlns:cc="http://creativecommons.org/ns#"
   xmlns:rdf="http://www.w3.org/1999/02/22-rdf-syntax-ns#"
   xmlns:svg="http://www.w3.org/2000/svg"
   xmlns="http://www.w3.org/2000/svg"
   viewBox="0 0 42.666664 42.666397"
   height="42.666397"
   width="42.666664"
   xml:space="preserve"
   id="svg2"
   version="1.1"><metadata
     id="metadata8"><rdf:RDF><cc:Work
         rdf:about=""><dc:format>image/svg+xml</dc:format><dc:type
           rdf:resource="http://purl.org/dc/dcmitype/StillImage" /></cc:Work></rdf:RDF></metadata><defs
     id="defs6"><clipPath
       id="clipPath18"
       clipPathUnits="userSpaceOnUse"><path
         id="path16"
         d="M 0,32 H 32 V 0 H 0 Z" /></clipPath></defs><g
     transform="matrix(1.3333333,0,0,-1.3333333,0,42.666399)"
     id="g10"><g
       id="g12"><g
         clip-path="url(#clipPath18)"
         id="g14"><g
           transform="translate(24,14.9998)"
           id="g20"><path
             id="path22"
             style="fill:#1fba0a;fill-opacity:1;fill-rule:nonzero;stroke:none"
             d="m 0,0 c -0.553,0 -1,-0.447 -1,-1 0,-0.553 0.447,-1 1,-1 3.419,0 6,-2.85 6,-6.268 C 6,-8.381 5.979,-8.494 5.932,-8.594 5.708,-9.1 5.936,-9.689 6.44,-9.914 6.57,-9.973 6.709,-10 6.846,-10 7.229,-10 7.594,-9.776 7.76,-9.406 7.919,-9.047 8,-8.664 8,-8.265 8,-3.747 4.521,0 0,0 m -8.769,14.361 c 0.716,0.424 1.479,0.638 2.269,0.638 3.032,0 5.5,-3.196 5.5,-7.124 C -1,7.17 -1.078,6.479 -1.232,5.818 -1.359,5.28 -1.025,4.742 -0.488,4.616 -0.411,4.597 -0.335,4.59 -0.259,4.59 0.195,4.59 0.605,4.901 0.714,5.361 0.902,6.172 1,7.017 1,7.875 1,12.906 -2.363,17 -6.5,17 c -1.137,0 -2.272,-0.317 -3.286,-0.917 -0.476,-0.281 -0.633,-0.895 -0.352,-1.37 0.281,-0.475 0.896,-0.633 1.369,-0.352 M -3.201,-4 c -0.553,0 -1,-0.447 -1,-1 0,-0.553 0.447,-1 1,-1 C 0.218,-6 3,-8.782 3,-12.202 3,-12.641 2.641,-13 2.199,-13 h -23.4 c -0.44,0 -0.799,0.357 -0.799,0.798 0,3.42 2.781,6.202 6.199,6.202 0.553,0 1,0.447 1,1 0,0.553 -0.447,1 -1,1 -4.521,0 -8.199,-3.68 -8.199,-8.202 0,-1.543 1.256,-2.798 2.799,-2.798 h 23.4 C 3.743,-15 5,-13.745 5,-12.202 5,-7.68 1.32,-4 -3.201,-4 M -9.5,11.25 C -6.468,11.25 -4,8.054 -4,4.125 -4,0.195 -6.468,-3 -9.5,-3 c -3.032,0 -5.5,3.195 -5.502,7.125 0,3.929 2.468,7.125 5.502,7.125 M -9.5,-5 c 4.137,0 7.5,4.094 7.5,9.125 0,5.032 -3.363,9.125 -7.5,9.125 -2.046,0 -3.956,-0.979 -5.378,-2.755 C -16.247,8.783 -17.001,6.521 -17,4.125 -17,-0.907 -13.636,-5 -9.5,-5" /></g></g></g></g></svg>